# xmcd
#
# Track frame offsets:
# 150
# 12245
# 30915
# 48736
# 68019
# 81904
# 99355
# 114890
# 137888
# 151419
# 171270
# 191211
# 210849
# 223386
#
# Disc length: 3203 seconds
#
# Revision: 0
# Processed by: cddbd v1.5.2PL0 Copyright (c) Steve Scherf et al.
# Submitted via: Axialis_AX_CDPlayer 2.6
#
DISCID=bd0c810e
DTITLE=Trisha Yearwood - Love Songs
DYEAR=1900
DGENRE=
TTITLE0=That's What I Like About You
TTITLE1=She's In Love With The Boy
TTITLE2=Down On My Knees
TTITLE3=I Don't Fall In Love So Easy
TTITLE4=If I Ain't Got You
TTITLE5=The Nightingale
TTITLE6=Thinkin' About You
TTITLE7=Maybe It's Love
TTITLE8=Powerful Thing
TTITLE9=I'll Still Love You More
TTITLE10=One Love
TTITLE11=Love Alone
TTITLE12=Baby Don't You Let Go
TTITLE13=Sweet Love
EXTD=www.trishayearwood.com
EXTT0=
EXTT1=
EXTT2=
EXTT3=
EXTT4=
EXTT5=
EXTT6=
EXTT7=
EXTT8=
EXTT9=
EXTT10=
EXTT11=
EXTT12=
EXTT13=
PLAYORDER=
